<?xml version="1.0" encoding="UTF-8" standalone="no"?>
<!DOCTYPE svg PUBLIC "-//W3C//DTD SVG 1.1//EN" "http://www.w3.org/Graphics/SVG/1.1/DTD/svg11.dtd">
<svg width="100%" height="100%" viewBox="0 0 675 675" version="1.1" xmlns="http://www.w3.org/2000/svg" xmlns:xlink="http://www.w3.org/1999/xlink" xml:space="preserve" xmlns:serif="http://www.serif.com/" style="fill-rule:evenodd;clip-rule:evenodd;stroke-linejoin:round;stroke-miterlimit:2;">
    <g transform="matrix(0.625,0,0,0.625,0,0)">
        <g id="Layer2">
            <rect x="-3.777" y="-2.695" width="1097.23" height="1098.83" style="fill:rgb(84,159,116);"/>
            <path d="M642.356,348.559L666.915,364.509L629.2,384.997L642.356,348.559Z" style="fill:none;"/>
            <path d="M679.214,374.278C679.214,374.278 680.116,375.055 681.557,376.473C692.927,387.661 705.392,383.352 705.392,383.352L650.859,426.217L679.214,374.278Z" style="fill:rgb(84,159,116);"/>
            <path d="M679.214,374.278L650.859,426.217L705.392,383.352C705.392,383.352 692.927,387.661 681.557,376.473C680.116,375.055 679.214,374.278 679.214,374.278Z" style="fill:none;"/>
        </g>
        <path d="M295.35,215.346L391.031,215.473L471.039,215.06L533.966,217.806C533.966,217.806 573.693,222.536 592.866,227.868C612.038,233.2 632.536,241.397 648.998,249.797C664.223,257.566 679.502,266.239 691.642,278.271C706.939,293.432 727.682,317.728 740.782,340.763C753.942,363.903 764.079,390.581 770.6,417.113C777.596,445.584 781.925,479.847 782.762,511.587C783.754,549.223 781.2,607.776 776.555,642.931C772.953,670.187 764.893,698.937 754.89,722.513C745.411,744.851 716.532,784.387 716.532,784.387C716.532,784.387 697.521,804.577 688.472,812.4C680.316,819.451 662.24,831.322 662.24,831.322C662.24,831.322 638.571,844.009 626.371,848.331C614.74,852.451 603.943,856.041 592.114,858.094C580.583,860.096 572.969,861.842 563.835,863.958C515.745,875.101 296.019,865.38 296.019,865.38L295.35,215.346ZM423.312,755.449L457.257,755.475L489.231,755.488L521.971,754.182L538.66,752.185L557.148,747.908L571.514,742.937L586.445,735.922L600.34,726.668L614.051,713.081L622.309,702.41C622.309,702.41 627.405,693.737 627.865,692.624C628.324,691.51 633.608,679.676 633.608,679.676L638.64,666.161L642.662,650.323L646.748,625.474L648.798,607.96L650.21,584.007L651.049,554.727L650.727,513.791L649.815,488.024L643.441,439.601L634.067,405.561L624.281,384.723L609.591,366.781L592.647,352.673L551.213,336.779L516.71,331.775L466.086,329.815L445.162,330.623L425.207,341.701L422.511,343.297L423.312,755.449Z" style="fill:white;"/>
        <g id="Layer3">
            <path d="M423.312,755.449L457.257,755.475L489.231,755.488L521.971,754.182L538.66,752.185L557.148,747.908L571.514,742.937L586.445,735.922L600.34,726.668L614.051,713.081L622.309,702.41C622.309,702.41 627.405,693.737 627.865,692.624C628.324,691.51 633.608,679.676 633.608,679.676L638.64,666.161L642.662,650.323L646.748,625.474L648.798,607.96L650.21,584.007L651.049,554.727L650.727,513.791L649.815,488.024L643.441,439.601L634.067,405.561L624.281,384.723L609.591,366.781L592.647,352.673L551.213,336.779L516.71,331.775L466.086,329.815L445.162,330.623L425.207,341.701L422.511,343.297L423.312,755.449Z" style="fill:none;"/>
            <path d="M542.409,596.868C542.409,596.868 545.946,596.977 547.075,596.977C548.203,596.978 551.734,597.075 551.734,597.075L555.475,596.862C555.475,596.862 556.574,596.932 557.154,596.225C557.734,595.518 559.492,592.667 559.492,592.667L560.313,590.099C560.313,590.099 560.708,589.492 560.224,588.201C559.741,586.909 559.396,586.618 559.396,586.618L559.935,585.017C559.935,585.017 560.945,584.33 561.443,584.422C561.942,584.514 563.284,584.481 563.287,584.509C563.291,584.537 564.706,585.098 564.706,585.098C564.706,585.098 565.115,585.597 565.131,586.036C565.146,586.475 565.698,588.622 564.989,589.025C564.281,589.427 564.128,590.514 564.128,590.514L563.86,593.059L562.791,597.475C562.791,597.475 562.335,600.042 559.44,602.403C556.545,604.763 549.72,606.726 549.72,606.726L551.274,611.301L551.639,617.248C551.639,617.248 555.839,620.305 555.773,620.814C555.706,621.323 556.964,627.262 556.643,627.816C556.322,628.369 562.649,631.803 562.649,631.803C562.649,631.803 563.083,636.567 562.464,637.231C561.844,637.895 557.357,643.646 556.433,643.544C555.51,643.442 554.71,644.061 551.222,643.897C547.733,643.734 546.716,638.505 546.428,639.189C546.141,639.874 542.273,641.205 541.228,641.387C540.183,641.57 535.457,642.124 534.776,641.942C534.094,641.76 527.003,639.25 526.451,638.105C525.898,636.961 521.134,635.065 520.419,629.012C519.704,622.96 518.516,615.876 518.516,615.876L519.207,609.725L512.993,605.028L510.468,602.072L509.888,597.975L510.823,593.021L511.535,589.941L512.207,588.209L511.24,586.669L511.004,585.192L512.359,583.362L513.983,582.229L515.396,581.936L516.838,581.972L517.039,584.062L516.04,586.804L515.459,589.437L515.326,593.714L515.699,596.796L516.5,599.042L519.106,599.961L521.524,599.741L523.794,598.22L526.356,597.102L529.306,596.917L529.574,588.765C529.574,588.765 530.851,586.017 531.616,585.781C532.381,585.544 533.251,584.146 534.96,584.002C536.67,583.858 538.729,584.299 538.729,584.299L540.583,585.211L542.273,587.442L543.072,589.861L542.775,594.086L542.409,596.868Z" style="fill:white;"/>
            <path d="M542.409,596.868C542.409,596.868 545.946,596.977 547.075,596.977C548.203,596.978 551.734,597.075 551.734,597.075L555.475,596.862C555.475,596.862 556.574,596.932 557.154,596.225C557.734,595.518 559.492,592.667 559.492,592.667L560.313,590.099C560.313,590.099 560.708,589.492 560.224,588.201C559.741,586.909 559.396,586.618 559.396,586.618L559.935,585.017C559.935,585.017 560.945,584.33 561.443,584.422C561.942,584.514 563.284,584.481 563.287,584.509C563.291,584.537 564.706,585.098 564.706,585.098C564.706,585.098 565.115,585.597 565.131,586.036C565.146,586.475 565.698,588.622 564.989,589.025C564.281,589.427 564.128,590.514 564.128,590.514L563.86,593.059L562.791,597.475C562.791,597.475 562.335,600.042 559.44,602.403C556.545,604.763 549.72,606.726 549.72,606.726L551.274,611.301L551.639,617.248C551.639,617.248 555.839,620.305 555.773,620.814C555.706,621.323 556.964,627.262 556.643,627.816C556.322,628.369 562.649,631.803 562.649,631.803C562.649,631.803 563.083,636.567 562.464,637.231C561.844,637.895 557.357,643.646 556.433,643.544C555.51,643.442 554.71,644.061 551.222,643.897C547.733,643.734 546.716,638.505 546.428,639.189C546.141,639.874 542.273,641.205 541.228,641.387C540.183,641.57 535.457,642.124 534.776,641.942C534.094,641.76 527.003,639.25 526.451,638.105C525.898,636.961 521.134,635.065 520.419,629.012C519.704,622.96 518.516,615.876 518.516,615.876L519.207,609.725L512.993,605.028L510.468,602.072L509.888,597.975L510.823,593.021L511.535,589.941L512.207,588.209L511.24,586.669L511.004,585.192L512.359,583.362L513.983,582.229L515.396,581.936L516.838,581.972L517.039,584.062L516.04,586.804L515.459,589.437L515.326,593.714L515.699,596.796L516.5,599.042L519.106,599.961L521.524,599.741L523.794,598.22L526.356,597.102L529.306,596.917L529.574,588.765C529.574,588.765 530.851,586.017 531.616,585.781C532.381,585.544 533.251,584.146 534.96,584.002C536.67,583.858 538.729,584.299 538.729,584.299L540.583,585.211L542.273,587.442L543.072,589.861L542.775,594.086L542.409,596.868Z" style="fill:none;"/>
            <path d="M627.062,390.243L625.972,390.641L576.703,524.143L560.965,566.43L561.031,566.325L560.902,566.65L570.113,551.732L642.956,434.694L643.666,439.307L557.669,577.97L553.634,590.138L551.343,597.803L547.013,597.577L553.595,576.804L555.659,564.057L576.82,411.426L560.54,339.291L564.642,339.69L580.46,409.736L625.549,386.495L627.062,390.243ZM580.191,413.513L559.466,562.332L621.75,392.714L580.191,413.513Z" style="fill:white;"/>
            <g>
                <path d="M551.373,597.065L553.634,590.138L557.669,577.97L643.666,439.307L642.956,434.694L560.965,566.43L626.472,390.416L624.342,387.52L580.46,409.736L564.642,339.69L560.54,339.291L576.82,411.426L555.659,564.057L553.595,576.804L547.127,596.966L551.373,597.065Z" style="fill:none;"/>
                <g>
                    <path d="M580.191,413.513L621.75,392.714L559.466,562.332L580.191,413.513Z" style="fill:none;"/>
                    <path d="M560.902,566.65L642.345,434.747L638.842,420.546L634.502,407.138L627.193,390.818L625.972,390.641L562.616,562.314L560.902,566.65" style="fill:none;"/>
                </g>
            </g>
            <path d="M527.165,597.051L523.564,598.407L519.583,583.159L515.58,576.414L422.532,459.857L422.547,452.703L513.192,567.771L422.357,363.656L422.321,355.148L516.67,567.007L488.28,399.31L422.092,344.77L422.06,340.442L489.246,395.823L510.231,331.269L513.881,331.518L491.292,398.475L521.079,574.951L527.165,597.051Z" style="fill:white;"/>
            <path d="M527.165,597.051L521.079,574.951L491.292,398.475L513.881,331.518L510.231,331.269L489.246,395.823L423.563,343.163L422.699,345.074L488.28,399.31L516.67,567.007L422.822,355.371L423.058,364.837L513.192,567.771L422.603,452.497L422.691,460.897L515.58,576.414L519.583,583.159L523.564,598.407L527.165,597.051Z" style="fill:none;"/>
            <path d="M401.754,353.342L400.13,355.11L376.475,377.38L358.68,398.194C342.124,388.704 322.281,396.792 322.281,396.792C321.58,372.715 337.929,367.774 337.929,367.774C339.603,346.144 353.614,338.822 353.614,338.822C377.994,320.983 401.754,353.342 401.754,353.342Z" style="fill:rgb(83,158,115);"/>
            <path d="M403.972,351.735C389.513,327.935 365.836,330.517 365.836,330.517C409.239,259.381 445.259,324.304 445.259,324.304L439.78,328.42L419.56,340.333L403.972,351.735Z" style="fill:rgb(83,158,115);"/>
            <path d="M448.051,323.458C434.248,294.413 410.332,294.965 410.332,294.965C477.26,231.635 496.526,304.264 496.526,304.264L448.051,323.458Z" style="fill:rgb(83,158,115);"/>
            <path d="M499.524,303.614C492.976,272.545 471.108,269.083 471.108,269.083C533.657,233.655 542.862,294.085 542.862,294.085L499.524,303.614Z" style="fill:rgb(83,158,115);"/>
            <path d="M545.167,293.948C545.547,270.368 524.471,260.071 524.471,260.071C602.015,239.258 599.357,293.74 599.357,293.74L545.167,293.948Z" style="fill:rgb(83,158,115);"/>
            <path d="M687.146,327.709C687.66,327.467 687.989,327.031 687.989,327.031C692.339,320.874 690.791,314.531 690.791,314.531C703.463,317.75 706.025,331.701 706.025,331.701C708.031,331.324 713.477,339.765 713.477,339.765C715.06,340.128 719.693,355.095 719.693,355.095C721.983,372.652 714.852,378.502 714.852,378.502L709.201,384.097L643.326,440.558L641.759,435.986L642.772,435.157L705.175,383.063L708.732,377.023C715.148,372.633 706.016,358.002 706.016,358.002C705.978,353.385 696.538,335.989 696.538,335.989L687.146,327.709Z" style="fill:rgb(83,158,115);"/>
            <path d="M668.735,315.263C674.641,305.731 670.817,297.017 670.817,297.017C674.699,295.637 686.836,306.049 687.716,312.836C688.596,319.623 685.351,326.081 685.351,326.081L668.735,315.263Z" style="fill:rgb(83,158,115);"/>
            <path d="M639.265,302.402C642.611,286.462 634.811,277.228 634.811,277.228C678.165,282.833 666.612,314.306 666.612,314.306L639.265,302.402Z" style="fill:rgb(83,158,115);"/>
            <path d="M601.707,294.161C605.205,274.276 589.032,263.07 589.032,263.07C645.127,258.724 636.253,301.838 636.253,301.838L601.707,294.161Z" style="fill:rgb(83,158,115);"/>
            <path d="M643.377,440.149L709.201,384.097L714.852,378.502C714.852,378.502 721.983,372.652 719.693,355.095C719.693,355.095 715.06,340.128 713.477,339.765C713.477,339.765 708.031,331.324 706.025,331.701C706.025,331.701 703.463,317.75 690.791,314.531C690.791,314.531 692.339,320.874 687.989,327.031C687.989,327.031 687.66,327.467 687.146,327.709C687.146,327.709 685.926,326.474 685.351,326.081C685.351,326.081 688.596,319.623 687.716,312.836C686.836,306.049 674.699,295.637 670.817,297.017C670.817,297.017 674.641,305.731 668.735,315.263L666.612,314.306C666.612,314.306 678.165,282.833 634.811,277.228C634.811,277.228 642.611,286.462 639.265,302.402L636.253,301.838C636.253,301.838 645.127,258.724 589.032,263.07C589.032,263.07 605.205,274.276 601.707,294.161L599.357,293.74C599.357,293.74 602.015,239.258 524.471,260.071C524.471,260.071 545.547,270.368 545.167,293.948L542.862,294.085C542.862,294.085 533.657,233.655 471.108,269.083C471.108,269.083 492.976,272.545 499.524,303.614L496.526,304.264C496.526,304.264 477.26,231.635 410.332,294.965C410.332,294.965 434.248,294.413 448.051,323.458L445.259,324.304C445.259,324.304 409.239,259.381 365.836,330.517C365.836,330.517 389.513,327.935 403.972,351.735L401.754,353.342C401.754,353.342 377.994,320.983 353.614,338.822C353.614,338.822 339.603,346.144 337.929,367.774C337.929,367.774 321.58,372.715 322.281,396.792C322.281,396.792 342.124,388.704 358.68,398.194L376.475,377.38L400.13,355.11L401.754,353.342L403.972,351.735L419.56,340.333L439.78,328.42L445.259,324.304L448.051,323.458L496.526,304.264L499.524,303.614L542.862,294.085L545.167,293.948L599.357,293.74L601.707,294.161L636.253,301.838L639.265,302.402L666.612,314.306L668.735,315.263L685.351,326.081L687.146,327.709L696.538,335.989C696.538,335.989 710.745,351.962 710.783,356.579C710.783,356.579 715.148,372.633 708.732,377.023L705.175,383.063L650.823,426.117L642.869,433.515L643.377,440.149Z" style="fill:none;"/>
            <path d="M641.965,435.81L676.442,372.275L670.584,367.372L626.986,390.469L625.132,386.682L639.047,346.94C639.047,346.94 572.925,319.609 559.881,321.951L565.275,342.239L560.73,340.481L556.047,321.152L518.175,319.261L513.925,331.707L510.114,331.567L514.255,319.054C514.255,319.054 466.098,321.833 443.372,331.517L439.835,328.836C439.835,328.836 533.057,285.405 649.826,345.578L682.305,372.259L650.615,426.338L645.219,436.964L641.965,435.81Z" style="fill:rgb(84,159,116);"/>
            <path d="M443.813,328.438L444.427,331.468L424.469,342.222L429.099,336.673L439.835,328.836L443.813,328.438Z" style="fill:rgb(84,159,116);"/>
            <path d="M443.813,328.438L439.835,328.836L429.099,336.673L424.469,342.222L443.86,330.578L443.813,328.438Z" style="fill:none;"/>
            <path d="M642.711,433.039L676.442,372.275L670.584,367.372L626.701,390.723L624.203,387.518L639.047,346.94C639.047,346.94 572.925,319.609 559.881,321.951L565.25,342.159L560.559,339.42L556.047,321.152L518.175,319.261L514.549,331.477L509.93,331.275L514.255,319.054C514.255,319.054 466.773,321.638 444.047,331.322L439.835,328.836C439.835,328.836 531.333,286.969 648.102,347.142L682.305,372.259L650.615,426.338L643.98,437.38L642.711,433.039Z" style="fill:none;"/>
            <path d="M422.724,452.928L422.746,460.119L338.744,429.193L340.585,426.108L420.418,454.895L368.855,386.051L371.234,383.51L422.724,452.928Z" style="fill:rgb(84,159,116);"/>
            <path d="M422.724,452.928L371.234,383.51L369.046,386.267L420.418,454.895L340.585,426.108L338.744,429.193L422.765,460.251L422.724,452.928Z" style="fill:none;"/>
            <path d="M682.305,372.259L690.024,378.482C690.024,378.482 692.232,380.988 704.34,377.514C704.34,377.514 707.965,371.409 709.839,375.352C709.941,375.564 704.396,374.008 705.819,367.054C707.241,360.101 718.465,370.879 718.488,370.879L715.267,377.825L710.751,381.784L708.916,383.002L705.735,383.601L702.351,383.696L696.033,383.666L693.307,383.369L687.903,381.21L683.739,378.251L680.945,375.279L679.603,374.328L682.305,372.259Z" style="fill:rgb(84,159,116);"/>
            <path d="M682.305,372.259L690.024,378.482C690.024,378.482 693.259,383.017 705.366,379.543C705.366,379.543 709.319,377.085 709.839,375.352C710.36,373.618 711.341,375.115 712.763,368.161C714.186,361.207 718.465,370.879 718.488,370.879L715.267,377.825L710.751,381.784L708.916,383.002L705.735,383.601L702.351,383.696L696.033,383.666L693.307,383.369L687.903,381.21L683.739,378.251L680.945,375.279L679.603,374.328L682.305,372.259Z" style="fill:none;"/>
            <path d="M357.339,401.195L351.753,409.316L337.732,430.364C337.732,430.364 328.616,443.462 324.003,449.728C318.125,457.713 314.899,461.628 312.231,466.991C310.329,470.815 295.722,422.167 315.585,406.115C335.447,390.063 357.339,401.195 357.339,401.195Z" style="fill:rgb(84,159,116);"/>
            <path d="M357.339,401.195C357.339,401.195 337.032,387.986 317.17,404.038C297.307,420.09 323.574,449.646 326.321,451.78C329.068,453.913 337.732,430.364 337.732,430.364L351.753,409.316L357.339,401.195Z" style="fill:none;"/>
            <path d="M642.356,348.559L666.915,364.509L629.2,384.997L642.356,348.559Z" style="fill:white;"/>
            <path d="M422.831,355.985L423.425,366.275L412.875,343.825L416.317,341.454L422.831,355.985Z" style="fill:rgb(83,158,115);"/>
            <path d="M422.822,355.371L414.522,344.018L408.951,345.861L422.964,365.172L422.822,355.371Z" style="fill:none;"/>
            <path d="M439.78,328.42C439.78,328.42 554.985,257.976 666.612,314.306C666.612,314.306 722.522,343.096 710.66,375.288C710.66,375.288 700.733,386.306 687.474,377.591C687.474,377.591 653.294,343.071 612.17,331.224C612.17,331.224 546.008,298.494 450.232,325.516C354.456,352.538 439.78,328.42 439.78,328.42Z" style="fill:rgb(39,73,53);"/>
        </g>
    </g>
</svg>
